<mxfile host="app.diagrams.net" modified="2022-06-07T03:17:31.916Z" agent="5.0 (X11; Linux x86_64) AppleWebKit/537.36 (KHTML, like Gecko) Chrome/102.0.0.0 Safari/537.36" etag="cajhOXpdvZh7WDG0dxSo" version="19.0.0" type="github">
  <diagram id="rnhGuTRhcy1jvnzxiQ4r" name="Page-1">
    <mxGraphModel dx="2417" dy="773" grid="1" gridSize="10" guides="1" tooltips="1" connect="1" arrows="1" fold="1" page="1" pageScale="1" pageWidth="827" pageHeight="1169" math="0" shadow="0">
      <root>
        <mxCell id="0" />
        <mxCell id="1" parent="0" />
        <mxCell id="vr6mQ7-A995NxgYllvrL-1" value="" style="rounded=0;whiteSpace=wrap;html=1;" vertex="1" parent="1">
          <mxGeometry x="100" y="150" width="740" height="530" as="geometry" />
        </mxCell>
        <mxCell id="vr6mQ7-A995NxgYllvrL-2" value="&lt;font style=&quot;font-size: 24px;&quot;&gt;數字化運營系統：&lt;/font&gt;" style="text;html=1;strokeColor=none;fillColor=none;align=center;verticalAlign=middle;whiteSpace=wrap;rounded=0;" vertex="1" parent="1">
          <mxGeometry x="100" y="160" width="290" height="30" as="geometry" />
        </mxCell>
        <mxCell id="vr6mQ7-A995NxgYllvrL-5" value="數據加密系統" style="rounded=1;whiteSpace=wrap;html=1;fontSize=24;" vertex="1" parent="1">
          <mxGeometry x="535" y="330" width="190" height="80" as="geometry" />
        </mxCell>
        <mxCell id="vr6mQ7-A995NxgYllvrL-7" value="數據抓取系統" style="rounded=1;whiteSpace=wrap;html=1;fontSize=24;" vertex="1" parent="1">
          <mxGeometry x="-220" y="370" width="220" height="80" as="geometry" />
        </mxCell>
        <mxCell id="vr6mQ7-A995NxgYllvrL-8" value="&lt;span style=&quot;color: rgb(0, 0, 0); font-family: Helvetica; font-size: 24px; font-style: normal; font-variant-ligatures: normal; font-variant-caps: normal; font-weight: 400; letter-spacing: normal; orphans: 2; text-align: center; text-indent: 0px; text-transform: none; widows: 2; word-spacing: 0px; -webkit-text-stroke-width: 0px; background-color: rgb(248, 249, 250); text-decoration-thickness: initial; text-decoration-style: initial; text-decoration-color: initial; float: none; display: inline !important;&quot;&gt;數據關聯系統&lt;/span&gt;" style="rounded=1;whiteSpace=wrap;html=1;fontSize=24;" vertex="1" parent="1">
          <mxGeometry x="170" y="380" width="220" height="70" as="geometry" />
        </mxCell>
        <mxCell id="vr6mQ7-A995NxgYllvrL-9" value="數據存儲系統" style="rounded=1;whiteSpace=wrap;html=1;fontSize=24;" vertex="1" parent="1">
          <mxGeometry x="170" y="500" width="220" height="65" as="geometry" />
        </mxCell>
        <mxCell id="vr6mQ7-A995NxgYllvrL-10" value="數據分析" style="rounded=1;whiteSpace=wrap;html=1;fontSize=24;" vertex="1" parent="1">
          <mxGeometry x="550" y="490" width="150" height="60" as="geometry" />
        </mxCell>
        <mxCell id="vr6mQ7-A995NxgYllvrL-11" value="數據演示" style="ellipse;whiteSpace=wrap;html=1;aspect=fixed;fontSize=24;" vertex="1" parent="1">
          <mxGeometry x="980" y="360" width="130" height="130" as="geometry" />
        </mxCell>
        <mxCell id="vr6mQ7-A995NxgYllvrL-12" value="" style="endArrow=classic;html=1;rounded=0;fontSize=24;exitX=1;exitY=0.5;exitDx=0;exitDy=0;entryX=0;entryY=0.5;entryDx=0;entryDy=0;" edge="1" parent="1" source="vr6mQ7-A995NxgYllvrL-9" target="vr6mQ7-A995NxgYllvrL-5">
          <mxGeometry width="50" height="50" relative="1" as="geometry">
            <mxPoint x="470" y="460" as="sourcePoint" />
            <mxPoint x="520" y="410" as="targetPoint" />
          </mxGeometry>
        </mxCell>
        <mxCell id="vr6mQ7-A995NxgYllvrL-14" value="" style="endArrow=classic;html=1;rounded=0;fontSize=24;exitX=1;exitY=0.5;exitDx=0;exitDy=0;entryX=0;entryY=0.5;entryDx=0;entryDy=0;" edge="1" parent="1" source="vr6mQ7-A995NxgYllvrL-9" target="vr6mQ7-A995NxgYllvrL-10">
          <mxGeometry width="50" height="50" relative="1" as="geometry">
            <mxPoint x="470" y="460" as="sourcePoint" />
            <mxPoint x="520" y="410" as="targetPoint" />
          </mxGeometry>
        </mxCell>
        <mxCell id="vr6mQ7-A995NxgYllvrL-15" value="" style="endArrow=classic;html=1;rounded=0;fontSize=24;exitX=1;exitY=0.5;exitDx=0;exitDy=0;" edge="1" parent="1" source="vr6mQ7-A995NxgYllvrL-5" target="vr6mQ7-A995NxgYllvrL-11">
          <mxGeometry width="50" height="50" relative="1" as="geometry">
            <mxPoint x="470" y="460" as="sourcePoint" />
            <mxPoint x="520" y="410" as="targetPoint" />
          </mxGeometry>
        </mxCell>
        <mxCell id="vr6mQ7-A995NxgYllvrL-17" value="" style="endArrow=classic;html=1;rounded=0;fontSize=24;exitX=1;exitY=0.5;exitDx=0;exitDy=0;entryX=0;entryY=0.5;entryDx=0;entryDy=0;" edge="1" parent="1" source="vr6mQ7-A995NxgYllvrL-10" target="vr6mQ7-A995NxgYllvrL-11">
          <mxGeometry width="50" height="50" relative="1" as="geometry">
            <mxPoint x="470" y="460" as="sourcePoint" />
            <mxPoint x="520" y="410" as="targetPoint" />
          </mxGeometry>
        </mxCell>
        <mxCell id="vr6mQ7-A995NxgYllvrL-18" value="" style="endArrow=classic;html=1;rounded=0;fontSize=24;exitX=1;exitY=0.5;exitDx=0;exitDy=0;" edge="1" parent="1" source="vr6mQ7-A995NxgYllvrL-7" target="vr6mQ7-A995NxgYllvrL-8">
          <mxGeometry width="50" height="50" relative="1" as="geometry">
            <mxPoint x="470" y="460" as="sourcePoint" />
            <mxPoint x="520" y="410" as="targetPoint" />
          </mxGeometry>
        </mxCell>
        <mxCell id="vr6mQ7-A995NxgYllvrL-19" value="" style="endArrow=classic;html=1;rounded=0;fontSize=24;exitX=0.5;exitY=1;exitDx=0;exitDy=0;" edge="1" parent="1" source="vr6mQ7-A995NxgYllvrL-8" target="vr6mQ7-A995NxgYllvrL-9">
          <mxGeometry width="50" height="50" relative="1" as="geometry">
            <mxPoint x="470" y="460" as="sourcePoint" />
            <mxPoint x="520" y="410" as="targetPoint" />
          </mxGeometry>
        </mxCell>
      </root>
    </mxGraphModel>
  </diagram>
</mxfile>
